#!OML:ASF H:\Terrain\Patient Classification 1\Terrain2\Thursday\justin.ASF
:FULLY-SPECIFIED
:DEGREES
2726
root 4.94269 19.1872 11.2885 902.536 48.7004 -528.128
lowerback 15.2599 1.04285 0.251962
upperback 4.18796 1.80756 1.11099
thorax -4.13819 1.0335 0.680158
lowerneck -10.0686 -9.71957 -13.6579
upperneck 34.8954 -12.3971 9.68017
head 15.5523 -5.24502 4.55799
rclavicle 6.41081e-014 -9.54166e-015
rhumerus -41.5779 4.46514 -67.1828
rradius 53.3362
rwrist -6.77257
rhand -21.1551 16.1944
rfingers 7.12502
rthumb 5.22457 -13.7212
lclavicle 6.41081e-014 -9.54166e-015
lhumerus -36.1485 3.78733 71.0041
lradius 49.125
lwrist 9.12909
lhand -22.5963 20.828
lfingers 7.12502
lthumb 3.83299 50.7733
rfemur -49.6239 -18.9807 1.13645
rtibia 39.4291
rfoot 9.02721 -5.29336
rtoes 5.05934
lfemur 12.1824 -13.0154 -0.0907736
ltibia 37.3638
lfoot -9.15953 -28.5935
ltoes 16.0237
2727
root 5.15806 19.2732 11.2894 902.814 48.5795 -528.321
lowerback 15.1731 0.936943 0.53282
upperback 3.85654 1.69366 1.24379
thorax -4.43629 0.963606 0.680069
lowerneck -10.1361 -9.68814 -13.7865
upperneck 34.9294 -12.2176 9.411
head 15.543 -5.21702 4.49376
rclavicle 1.14599e-013 -3.18055e-015
rhumerus -41.9627 5.40187 -67.1179
rradius 53.5013
rwrist -6.60367
rhand -20.5079 16.8873
rfingers 7.12502
rthumb 5.84951 -13.0119
lclavicle 1.14599e-013 -3.18055e-015
lhumerus -37.1215 3.48804 70.8899
lradius 49.1632
lwrist 8.94706
lhand -21.9592 21.4696
lfingers 7.12502
lthumb 4.44816 51.4029
rfemur -49.5526 -18.6866 1.18656
rtibia 40.143
rfoot 8.41848 -5.0482
rtoes 6.60774
lfemur 13.5624 -13.5281 0.11904
ltibia 34.3707
lfoot -5.01947 -27.8816
ltoes 22.508
2728
root 5.3928 19.3655 11.2756 902.748 48.7007 -528.383
lowerback 15.3559 0.845268 0.883442
upperback 3.65413 1.62756 1.34902
thorax -4.7424 0.922299 0.599222
lowerneck -10.1036 -9.57974 -13.8235
upperneck 34.8685 -11.9717 9.18882
head 15.4472 -5.14731 4.44681
rclavicle -8.21975e-014 3.02153e-014
rhumerus -42.3067 6.37081 -67.1716
rradius 53.5475
rwrist -6.30864
rhand -20.4743 16.8845
rfingers 7.12502
rthumb 5.88186 -13.0139
lclavicle -8.21975e-014 3.02153e-014
lhumerus -38.2484 3.23879 70.6246
lradius 49.1319
lwrist 8.96163
lhand -21.7756 22.7865
lfingers 7.12502
lthumb 4.62546 52.7161
rfemur -49.2062 -18.4066 1.60611
rtibia 40.9214
rfoot 8.03569 -4.34932
rtoes 2.75547
lfemur 15.7922 -14.0302 0.183325
ltibia 31.0076
lfoot -4.30382 -26.889
ltoes 18.2312
2729
root 5.626 19.4672 11.2624 902.391 48.9481 -529.274
lowerback 15.2779 0.800658 0.823841
upperback 3.37639 1.52888 1.22003
thorax -4.9909 0.861603 0.515049
lowerneck -10.0721 -9.47126 -13.7367
upperneck 34.7953 -11.707 8.81197
head 15.3189 -5.07456 4.31345
rclavicle 9.13416e-014 7.95139e-015
rhumerus -42.5851 7.44436 -67.4872
rradius 53.5208
rwrist -6.86391
rhand -20.6275 15.9712
rfingers 7.12502
rthumb 5.73397 -13.9313
lclavicle 9.13416e-014 7.95139e-015
lhumerus -39.4369 3.10646 70.2078
lradius 49.1975
lwrist 9.01493
lhand -21.5938 23.6843
lfingers 7.12502
lthumb 4.80097 53.6099
rfemur -49.3498 -18.4707 1.77124
rtibia 41.7072
rfoot 7.73783 -3.36854
rtoes -1.39645
lfemur 17.9439 -14.5561 -0.478193
ltibia 27.2458
lfoot -3.16947 -25.5099
ltoes 14.5215
2730
root 5.85603 19.5744 11.2562 902.021 49.1392 -530.433
lowerback 15.0267 0.773674 0.627367
upperback 3.12779 1.42879 1.08815
thorax -5.11774 0.80284 0.508991
lowerneck -10.1874 -9.43035 -13.7738
upperneck 34.781 -11.4816 8.37756
head 15.2705 -5.03991 4.16585
rclavicle -2.23633e-014 1.59028e-015
rhumerus -42.7133 8.27792 -67.7201
rradius 53.3523
rwrist -7.35329
rhand -20.0746 15.6556
rfingers 7.12502
rthumb 6.26783 -14.2316
lclavicle -2.23633e-014 1.59028e-015
lhumerus -40.3985 2.95753 69.8824
lradius 49.0824
lwrist 9.02032
lhand -21.4491 22.4261
lfingers 7.12502
lthumb 4.94069 52.3485
rfemur -49.5036 -18.4921 1.64601
rtibia 42.4207
rfoot 7.12491 -2.96636
rtoes -0.700666
lfemur 20.0624 -15.1647 -1.30502
ltibia 23.0754
lfoot -0.193667 -23.8005
ltoes 16.4659
2731
root 6.08485 19.6866 11.2509 902.361 49.313 -530.633
lowerback 14.8276 0.714357 1.06911
upperback 2.90077 1.40394 1.1307
thorax -5.24031 0.776176 0.310503
lowerneck -10.2401 -9.34268 -13.7744
upperneck 34.7385 -11.2203 8.01876
head 15.1928 -4.97519 4.05443
rclavicle -4.44781e-014 4.77083e-015
rhumerus -42.7412 8.78014 -67.8228
rradius 52.9695
rwrist -7.42898
rhand -19.803 15.3093
rfingers 7.12502
rthumb 6.53001 -14.57
lclavicle -4.44781e-014 4.77083e-015
lhumerus -41.1904 2.80124 69.587
lradius 48.7038
lwrist 9.15352
lhand -21.1493 21.1357
lfingers 7.12502
lthumb 5.2302 51.0512
rfemur -49.4921 -18.371 2.25541
rtibia 42.9938
rfoot 6.47944 -2.9079
rtoes 0.933049
lfemur 22.3134 -15.6041 -1.34282
ltibia 18.5074
lfoot 2.93269 -22.0466
ltoes 14.5706
2732
root 6.31763 19.7969 11.2455 903.293 49.5369 -530.115
lowerback 14.6322 0.60997 1.94187
upperback 2.62776 1.39587 1.29977
thorax -5.40696 0.750444 -0.00167893
lowerneck -10.2833 -9.21508 -13.7142
upperneck 34.8328 -10.8687 7.56091
head 15.1551 -4.87095 3.91397
rclavicle 5.36222e-014 -2.18663e-014
rhumerus -42.7184 9.30491 -68.0213
rradius 52.4504
rwrist -7.54961
rhand -19.9734 14.4615
rfingers 7.12502
rthumb 6.36546 -15.4229
lclavicle 5.36222e-014 -2.18663e-014
lhumerus -42.2091 3.13421 69.1148
lradius 48.5292
lwrist 9.40475
lhand -21.3189 20.2491
lfingers 7.12502
lthumb 5.06644 50.1685
rfemur -49.6014 -18.3026 3.68449
rtibia 43.464
rfoot 5.84915 -3.24345
rtoes -0.635095
lfemur 24.8586 -15.6885 -0.754712
ltibia 13.3293
lfoot 6.30746 -20.2013
ltoes 9.40905
2733
root 6.55267 19.9116 11.2429 903.678 49.7473 -530.59
lowerback 14.3414 0.556875 2.22593
upperback 2.24464 1.33993 1.27746
thorax -5.64675 0.701489 -0.172614
lowerneck -10.3338 -9.17792 -13.7581
upperneck 35.0624 -10.6017 7.05925
head 15.2078 -4.81865 3.7609
rclavicle 4.91992e-015 2.3059e-014
rhumerus -42.7139 9.71063 -68.2922
rradius 51.8254
rwrist -7.7735
rhand -20.063 13.6002
rfingers 7.12502
rthumb 6.27904 -16.2867
lclavicle 4.91992e-015 2.3059e-014
lhumerus -43.327 3.39994 68.5706
lradius 48.4696
lwrist 9.656
lhand -21.7688 19.5641
lfingers 7.12502
lthumb 4.63199 49.4935
rfemur -49.9532 -18.5403 4.63334
rtibia 43.8626
rfoot 5.20943 -3.47816
rtoes -4.00964
lfemur 28.1662 -15.735 -0.888064
ltibia 6.13567
lfoot 10.8377 -17.8245
ltoes 3.25737
2734
root 6.78481 20.036 11.2419 902.701 49.8235 -533.169
lowerback 13.8826 0.619618 1.34162
upperback 1.81021 1.21338 0.799222
thorax -5.86233 0.632131 -0.148509
lowerneck -10.4127 -9.20784 -13.8276
upperneck 35.2138 -10.5031 6.76246
head 15.2722 -4.81763 3.66505
rclavicle -6.30644e-014 1.27222e-014
rhumerus -42.6892 9.7287 -68.5642
rradius 51.0855
rwrist -8.20231
rhand -19.5689 13.9933
rfingers 7.12502
rthumb 6.756 -15.879
lclavicle -6.30644e-014 1.27222e-014
lhumerus -43.9928 3.07004 68.1391
lradius 48.0446
lwrist 10.1091
lhand -22.1099 19.9605
lfingers 7.12502
lthumb 4.30263 49.8968
rfemur -50.4071 -19.3179 4.14644
rtibia 44.1354
rfoot 4.43499 -3.03744
rtoes -4.30223
lfemur 30.4275 -15.8284 -2.46622
ltibia 9.54166e-014
lfoot 15.7148 -15.4367
ltoes -1.03253
2735
root 7.01716 20.1588 11.2401 900.939 49.7104 -537.013
lowerback 13.2125 0.643352 -0.353253
upperback 1.40067 0.913451 0.121937
thorax -5.94123 0.501709 0.158221
lowerneck -10.5658 -9.11897 -13.7931
upperneck 35.1992 -10.2659 6.48932
head 15.2446 -4.74589 3.57926
rclavicle 2.82274e-014 -9.93923e-015
rhumerus -42.4704 9.78154 -68.8423
rradius 50.3014
rwrist -8.77451
rhand -18.2431 15.9738
rfingers 7.12502
rthumb 8.03575 -13.8534
lclavicle 2.82274e-014 -9.93923e-015
lhumerus -44.5684 3.02661 67.6721
lradius 47.5729
lwrist 10.6847
lhand -22.8194 20.2606
lfingers 7.12502
lthumb 3.61751 50.2096
rfemur -50.9435 -20.5098 2.78264
rtibia 44.2653
rfoot 4.17146 -2.22822
rtoes -3.49238
lfemur 29.2551 -15.9959 -4.93593
ltibia 9.54166e-015
lfoot 18.2916 -13.8309
ltoes -2.92874
2736
root 7.25643 20.2906 11.2394 899.766 49.6758 -540.045
lowerback 12.4957 0.631842 -1.61901
upperback 1.05082 0.67707 -0.308322
thorax -5.91974 0.404445 0.468794
lowerneck -10.7688 -9.0188 -13.9905
upperneck 35.18 -9.94869 6.22342
head 15.2379 -4.67096 3.54767
rclavicle -1.02647e-013 1.92821e-014
rhumerus -42.0926 9.65996 -68.8405
rradius 49.4374
rwrist -8.89726
rhand -17.597 16.1233
rfingers 7.12502
rthumb 8.6593 -13.6791
lclavicle -1.02647e-013 1.92821e-014
lhumerus -45.3872 3.54717 67.1563
lradius 47.4107
lwrist 10.827
lhand -23.8267 19.4109
lfingers 7.12502
lthumb 2.64476 49.3742
rfemur -51.4735 -21.0714 1.7444
rtibia 44.2092
rfoot 5.48251 -1.36742
rtoes -4.84656
lfemur 28.1151 -16.1012 -6.85575
ltibia 6.99722e-014
lfoot 21.2624 -11.8483
ltoes -3.27386
2737
root 7.51058 20.4297 11.2554 900.327 50.1305 -540.246
lowerback 12.1336 0.796961 -1.34756
upperback 0.90048 0.936815 -0.161182
thorax -5.88027 0.52258 0.429016
lowerneck -11.1818 -9.09993 -14.4776
upperneck 35.2812 -9.87676 6.18091
head 15.4154 -4.70679 3.61131
rclavicle 3.95085e-014 -2.28602e-015
rhumerus -41.6352 9.09649 -68.5599
rradius 48.4742
rwrist -8.77233
rhand -18.4105 14.2598
rfingers 7.12502
rthumb 7.87414 -15.5736
lclavicle 3.95085e-014 -2.28602e-015
lhumerus -46.0534 3.33617 67.4642
lradius 48.39
lwrist 12.2918
lhand -26.0384 24.8842
lfingers 7.12502
lthumb 0.508685 54.8634
rfemur -51.6008 -19.6067 1.86724
rtibia 44.0838
rfoot 7.37133 -1.28567
rtoes -4.60091
lfemur 27.4931 -15.9965 -6.7213
ltibia -3.49861e-014
lfoot 24.2147 -9.92866
ltoes -2.98074
2738
root 7.73019 20.5607 11.2686 900.183 50.0302 -541.303
lowerback 12.1864 0.749227 -1.21984
upperback 0.738193 0.875973 -0.275659
thorax -6.07654 0.486896 0.245092
lowerneck -11.6166 -9.05031 -14.6938
upperneck 35.1585 -9.7291 6.23558
head 15.4572 -4.66731 3.67913
rclavicle 5.92378e-014 5.46658e-016
rhumerus -41.0896 8.68948 -68.4837
rradius 47.5657
rwrist -9.01127
rhand -19.1907 13.4679
rfingers 7.12502
rthumb 7.12112 -16.3923
lclavicle 5.92378e-014 5.46658e-016
lhumerus -46.5101 3.70993 67.1333
lradius 47.329
lwrist 13.0048
lhand -27.0179 21.2303
lfingers 7.12502
lthumb -0.437373 51.2096
rfemur -51.6388 -19.3148 1.27074
rtibia 43.9448
rfoot 8.11716 -0.531116
rtoes -6.12796
lfemur 26.7431 -16.3578 -7.31745
ltibia -2.8625e-014
lfoot 26.64 -8.60689
ltoes -4.15585
2739
root 7.9547 20.6833 11.2885 901.053 50.4406 -540.965
lowerback 12.2877 0.763372 -0.354774
upperback 0.55767 1.01133 -0.175416
thorax -6.31331 0.52761 -0.164074
lowerneck -11.8692 -8.83632 -14.5981
upperneck 34.8474 -9.4088 6.17217
head 15.3029 -4.53276 3.67706
rclavicle -8.60303e-014 3.72721e-015
rhumerus -40.5024 8.19349 -68.5246
rradius 46.6675
rwrist -9.09936
rhand -19.2251 13.6304
rfingers 7.12502
rthumb 7.08788 -16.2309
lclavicle -8.60303e-014 3.72721e-015
lhumerus -47.0606 4.45103 66.2636
lradius 46.4371
lwrist 11.8051
lhand -23.6341 21.4779
lfingers 7.12502
lthumb 2.83068 51.4388
rfemur -51.3991 -17.3984 0.919456
rtibia 43.9812
rfoot 6.81109 -2.48537
rtoes 0.240176
lfemur 26.215 -16.2987 -6.90104
ltibia 2.54444e-014
lfoot 28.5765 -7.84762
ltoes -1.91979
